
		<svg width="3244.594461529351" height="965.9198280966518" xmlns="http://www.w3.org/2000/svg" xmlns:xlink="http://www.w3.org/1999/xlink" version="1.1">
            <g transform="scale(12.229723076467556) translate(10, 10)">
				<svg xmlns="http://www.w3.org/2000/svg" xmlns:xlink="http://www.w3.org/1999/xlink" version="1.1">
                <g id="SvgjsG1100" rel="mainfill" name="main_text" xmlns:name="mainText_mainfill" fill="#FFFFFF" transform="translate(-1.367997646331787,-8.883996963500977)"><path d="M14.004 16.883999999999997 q4.5 0 7.56 2.538 t3.528 6.714 l-5.472 0 q-0.288 -1.908 -1.908 -3.204 t-3.708 -1.296 q-3.312 0 -5.148 2.376 t-1.836 6.444 q0 3.96 1.854 6.282 t5.13 2.322 q2.448 0 3.96 -1.494 t1.872 -4.266 l5.472 0 q-0.432 4.896 -3.51 7.704 t-7.794 2.808 q-5.652 0 -9.144 -3.726 t-3.492 -9.63 q0 -5.976 3.456 -9.774 t9.18 -3.798 z M37.656 24.083999999999996 q4.464 0 7.056 2.718 t2.592 7.11 q0 4.428 -2.646 7.11 t-7.002 2.682 q-4.428 0 -7.02 -2.718 t-2.592 -7.074 q0 -4.5 2.646 -7.164 t6.966 -2.664 z M33.156 33.91199999999999 q0 2.844 1.152 4.392 t3.348 1.548 q2.268 0 3.402 -1.584 t1.134 -4.356 q0 -2.88 -1.17 -4.428 t-3.402 -1.548 q-2.16 0 -3.312 1.548 t-1.152 4.428 z M55.872 17.495999999999995 l0 25.704 l-5.112 0 l0 -25.704 l5.112 0 z M65.16 17.495999999999995 l0 25.704 l-5.112 0 l0 -25.704 l5.112 0 z M77.75999999999999 24.083999999999996 q8.136 0.036 8.136 5.292 l0 9.864 q0 2.736 0.648 3.96 l-5.184 0 q-0.288 -0.864 -0.36 -1.8 q-2.268 2.304 -6.264 2.304 q-2.916 0 -4.626 -1.476 t-1.71 -4.104 q0 -2.556 1.62 -3.96 q1.656 -1.476 6.012 -1.872 q3.096 -0.324 3.924 -0.81 t0.828 -1.494 q0 -1.26 -0.756 -1.872 t-2.52 -0.612 q-1.62 0 -2.448 0.666 t-0.972 2.142 l-5.112 0 q0.18 -3.06 2.52 -4.644 t6.264 -1.584 z M73.51199999999999 37.907999999999994 q0 2.376 3.132 2.376 q4.104 -0.036 4.14 -4.212 l0 -1.98 q-0.612 0.612 -3.096 0.9 q-2.16 0.252 -3.168 0.882 t-1.008 2.034 z M94.96799999999999 17.495999999999995 l0 9.36 l0.072 0 q0.828 -1.26 2.358 -2.016 t3.51 -0.756 q3.42 0 5.562 2.736 t2.142 7.056 q0 4.356 -2.124 7.092 t-5.616 2.736 q-4.536 0 -6.084 -2.88 l-0.072 0 l0 2.376 l-4.86 0 l0 -25.704 l5.112 0 z M94.788 33.91199999999999 q0 2.7 1.188 4.32 t3.168 1.62 q1.944 0 3.15 -1.584 t1.206 -4.356 q0 -2.736 -1.17 -4.356 t-3.222 -1.62 q-2.016 0 -3.168 1.656 t-1.152 4.32 z M120.88799999999999 24.083999999999996 q4.464 0 7.056 2.718 t2.592 7.11 q0 4.428 -2.646 7.11 t-7.002 2.682 q-4.428 0 -7.02 -2.718 t-2.592 -7.074 q0 -4.5 2.646 -7.164 t6.966 -2.664 z M116.38799999999999 33.91199999999999 q0 2.844 1.152 4.392 t3.348 1.548 q2.268 0 3.402 -1.584 t1.134 -4.356 q0 -2.88 -1.17 -4.428 t-3.402 -1.548 q-2.16 0 -3.312 1.548 t-1.152 4.428 z M137.51999999999998 24.587999999999997 l3.42 12.636 l0.072 0 l3.096 -12.636 l4.968 0 l3.168 12.6 l0.072 0 l3.42 -12.6 l5.256 0 l-5.868 18.612 l-5.256 0 l-3.312 -12.492 l-0.072 0 l-3.168 12.492 l-5.292 0 l-5.904 -18.612 l5.4 0 z M171.756 24.083999999999996 q2.628 0 4.68 1.224 t3.222 3.546 t1.17 5.346 q0 0.288 -0.036 0.936 l-13.428 0 q0.072 2.232 1.17 3.474 t3.366 1.242 q1.404 0 2.574 -0.702 t1.494 -1.71 l4.5 0 q-1.98 6.264 -8.712 6.264 q-2.556 -0.036 -4.734 -1.116 t-3.474 -3.366 t-1.296 -5.31 q0 -2.844 1.314 -5.184 t3.492 -3.492 t4.698 -1.152 z M175.68 31.895999999999994 q-0.36 -2.088 -1.332 -3.024 t-2.772 -0.936 q-1.872 0 -2.952 1.062 t-1.26 2.898 l8.316 0 z M189.07199999999997 17.495999999999995 l0 4.212 l-5.112 0 l0 -4.212 l5.112 0 z M189.07199999999997 24.587999999999997 l0 18.612 l-5.112 0 l0 -18.612 l5.112 0 z M200.51999999999998 24.083999999999996 q3.852 0 5.544 2.988 l0.072 0 l0 -2.484 l4.86 0 l0 17.46 q0 4.032 -2.502 6.12 t-7.11 2.088 q-3.528 0 -5.814 -1.692 t-2.43 -4.284 l5.076 0 q0.612 2.556 3.816 2.556 q1.98 0 3.042 -1.17 t1.062 -3.33 l0 -2.556 l-0.072 0 q-0.756 1.368 -2.214 2.124 t-3.366 0.756 q-3.744 0 -5.85 -2.448 t-2.106 -6.912 q0 -3.96 2.214 -6.588 t5.778 -2.628 z M197.64 33.227999999999994 q0 2.628 1.098 4.104 t3.042 1.476 q1.98 0 3.168 -1.422 t1.188 -3.762 q0 -2.808 -1.134 -4.248 t-3.258 -1.44 q-1.98 0 -3.042 1.494 t-1.062 3.798 z M220.21200000000002 17.495999999999995 l0 9.684 l0.108 0 q0.864 -1.44 2.34 -2.268 t3.132 -0.828 q3.564 0 5.166 1.8 t1.602 5.688 l0 11.628 l-5.112 0 l0 -10.584 q0 -2.268 -0.738 -3.384 t-2.538 -1.116 q-2.052 0 -3.006 1.242 t-0.954 4.086 l0 9.756 l-5.112 0 l0 -25.704 l5.112 0 z M242.92800000000003 19.007999999999996 l0 5.58 l3.744 0 l0 3.42 l-3.744 0 l0 9.216 q0 1.296 0.432 1.728 t1.728 0.432 q0.936 0 1.584 -0.144 l0 3.996 q-1.08 0.18 -3.024 0.18 q-2.952 0 -4.392 -1.008 t-1.44 -3.492 l0 -10.908 l-3.096 0 l0 -3.42 l3.096 0 l0 -5.58 l5.112 0 z"/></g><defs id="SvgjsDefs1099"/><g id="SvgjsG1101" rel="mainfill" name="slogan_text" xmlns:name="sloganText_mainfill" fill="#FFFFFF" transform="translate(46.09194212406874,23.03409767150879)"><path d="M5.7129 34.9951125 q0.17578125 0.1171875 0.17578125 0.322265625 q0.0146484375 0.4833984375 -0.5712890625 0.4833984375 q-1.0546875 0 -2.109375 -0.029296875 t-2.1094 0.043945 q-0.8349609375 0.0439453125 -1.010742188 -0.4541015625 q-0.087890625 -0.2197265625 -0.087890625 -0.6884765625 q0.0146484375 -0.2490234375 0.02197265625 -0.4321289063 t0.0073242 -0.31494 q0.0146484375 -0.322265625 0.03662109375 -0.6665039063 t0.0073242 -0.68115 q-0.029296875 -0.703125 -0.05859375 -1.369628906 t-0.014648 -1.3696 q0.0146484375 -0.3369140625 0.029296875 -0.6665039063 t0.014648 -0.68115 q0.0146484375 -0.4248046875 0.00732421875 -0.7836914063 t-0.036621 -0.65186 q-0.029296875 -0.3955078125 0.3662109375 -0.46875 q0.5712890625 -0.1171875 0.615234375 0.673828125 q0.029296875 0.3369140625 0.0439453125 0.6518554688 t0.043945 0.60791 l0 0.38086 l-0.058594 0.55664 q-0.029296875 0.234375 -0.05126953125 0.46875 t-0.036621 0.4541 q-0.029296875 0.556640625 -0.029296875 0.9741210938 t0.014648 0.6958 q0.029296875 0.3515625 0.03662109375 0.732421875 t-0.021973 0.80566 q-0.029296875 0.64453125 0.17578125 0.849609375 q0.1611328125 0.1904296875 0.6884765625 0.234375 q0.263671875 0.029296875 0.5200195313 0.0439453125 t0.52002 0.043945 q0.3955078125 0.0439453125 0.8056640625 0.00732421875 t0.82031 0.021973 q0.263671875 0.029296875 0.6372070313 0.05126953125 t0.60791 0.15381 z M12.0556859375 35.7275425 q-0.29296875 -0.087890625 -0.5932617188 -0.2270507813 t-0.58594 -0.32227 t-0.53467 -0.41016 t-0.4248 -0.49072 q-0.234375 -0.3662109375 -0.3369140625 -0.7543945313 t-0.29297 -0.79834 q-0.146484375 -0.322265625 -0.1611328125 -0.703125 q-0.0146484375 -0.17578125 -0.03662109375 -0.3588867188 t-0.021973 -0.35889 q-0.0146484375 -0.17578125 -0.02197265625 -0.3076171875 t-0.0073242 -0.21973 q0 -0.2783203125 0.03662109375 -0.5786132813 t0.10986 -0.62256 q0.0146484375 -0.1025390625 0.087890625 -0.263671875 q0.146484375 -0.439453125 0.3735351563 -0.8276367188 t0.52002 -0.7251 q0.5712890625 -0.64453125 1.596679688 -1.142578125 q0.46875 -0.205078125 0.9814453125 -0.1904296875 q0.322265625 0.029296875 0.64453125 0.087890625 q0.263671875 0.0439453125 0.4614257813 0.06591796875 t0.34424 0.05127 q1.127929688 0.1318359375 1.9921875 0.99609375 q0.1904296875 0.1904296875 0.3588867188 0.4174804688 t0.32959 0.49072 l0.073242 0.11719 q0.0146484375 0.0439453125 0.029296875 0.0732421875 l0.029297 0.058594 q0.2490234375 0.5859375 0.4541015625 1.46484375 q0.1904296875 0.8203125 0.05859375 1.508789063 q-0.087890625 0.3955078125 -0.2197265625 0.76171875 t-0.23438 0.73242 q-0.5712890625 1.962890625 -2.578125 2.475585938 l-0.11719 0.029297 q-0.1171875 0.029296875 -0.29296875 0.05859375 t-0.41016 0.058594 q-0.380859375 0.0439453125 -0.7836914063 0.0146484375 t-0.82764 -0.16113 z M13.5351859375 27.3486625 q-0.791015625 0 -1.428222656 0.1904296875 t-1.1499 0.70313 q-0.703125 0.703125 -0.8935546875 1.560058594 t0.014648 1.9116 l0.13184 0.71777 q0.029296875 0.205078125 0.05859375 0.3295898438 t0.043945 0.15381 q0.087890625 0.322265625 0.3515625 0.615234375 t0.4834 0.5127 q0.1171875 0.1318359375 0.234375 0.2563476563 t0.24902 0.22705 q0.2197265625 0.1904296875 0.732421875 0.3515625 l0.014648 0 q0.2783203125 0.0732421875 0.6225585938 0.05126953125 t0.76904 -0.12451 q0.205078125 -0.05859375 0.4174804688 -0.08056640625 t0.43213 -0.080566 q0.5419921875 -0.1318359375 0.908203125 -0.5859375 l0.014648 0 l0 -0.014648 q0.234375 -0.2783203125 0.3955078125 -0.703125 q0.146484375 -0.4248046875 0.2197265625 -0.5419921875 q0.732421875 -1.435546875 0.2197265625 -3.10546875 l-0.014648 -0.014648 q-0.05859375 -0.1611328125 -0.1171875 -0.3076171875 t-0.16113 -0.29297 q-0.5712890625 -0.8642578125 -1.362304688 -1.245117188 q-0.029296875 -0.0146484375 -0.1318359375 -0.0732421875 t-0.29297 -0.17578 q-0.263671875 -0.1611328125 -0.7470703125 -0.234375 l-0.014648 0 z M27.8320125 34.4384625 q-0.2490234375 0.3076171875 -0.4760742188 0.5419921875 t-0.47607 0.40283 t-0.54932 0.27832 t-0.68115 0.15381 q-0.1904296875 0.029296875 -0.3955078125 0.03662109375 t-0.43945 -0.021973 q-0.322265625 -0.029296875 -0.6298828125 -0.029296875 t-0.62988 -0.073242 q-0.703125 -0.1611328125 -1.171875 -0.4833984375 t-0.71777 -0.83496 q-0.322265625 -0.703125 0.3662109375 -0.732421875 q0.1171875 0 0.2709960938 0.1684570313 t0.2417 0.25635 q0.3076171875 0.3076171875 0.3515625 0.3369140625 l0.014648 0 l0 0.014648 q0.7177734375 0.498046875 1.904296875 0.498046875 l0.014648 0 l0.014648 0 q0.498046875 0 1.274414063 -0.205078125 q0.76171875 -0.1904296875 1.010742188 -0.7763671875 q0.1318359375 -0.3515625 0 -0.76171875 l0 -0.014648 q-0.3662109375 -0.7763671875 -1.420898438 -1.040039063 l-1.8018 -0.46875 q-0.380859375 -0.087890625 -0.9228515625 -0.3662109375 q-0.2783203125 -0.146484375 -0.4833984375 -0.263671875 t-0.33691 -0.23438 q-0.6005859375 -0.439453125 -0.703125 -0.87890625 q-0.0146484375 -0.0732421875 -0.0146484375 -0.205078125 l0 -0.32227 q0 -0.205078125 0.029296875 -0.4028320313 t0.058594 -0.41748 q0.087890625 -0.673828125 0.5712890625 -1.201171875 q0.2197265625 -0.2197265625 0.5346679688 -0.3735351563 t0.60791 -0.28564 q0.41015625 -0.1904296875 0.8569335938 -0.1977539063 t0.88623 0.0073242 q1.435546875 0.0439453125 2.241210938 1.010742188 q0.3662109375 0.4541015625 0.2783203125 0.7470703125 l-0.10254 0.087891 q-0.234375 0.1171875 -0.556640625 -0.1611328125 q-0.087890625 -0.05859375 -0.1611328125 -0.1318359375 l-0.14648 -0.14648 t-0.19043 -0.15381 t-0.26367 -0.15381 l-0.029297 -0.029297 l-0.043945 0 q-0.5419921875 -0.1611328125 -1.105957031 -0.1904296875 t-1.1646 0.10254 q-0.7177734375 0.1611328125 -1.098632813 0.5932617188 t-0.38086 1.1499 l0 0.029297 l0.014648 0.029297 q0.05859375 0.908203125 1.40625 1.2890625 l0.4248 0.11719 l1.084 0.36621 q0.2490234375 0.087890625 0.498046875 0.1977539063 t0.52734 0.22705 q0.41015625 0.1904296875 0.76171875 0.3662109375 t0.64453 0.36621 q0.205078125 0.1318359375 0.3149414063 0.322265625 t0.14648 0.41016 t0.029297 0.4541 t-0.05127 0.4248 q-0.029296875 0.1611328125 -0.09521484375 0.3076171875 t-0.13916 0.26367 z M31.69921875 34.8779625 q-0.0146484375 -0.8935546875 -0.00732421875 -1.787109375 t0.0073242 -1.7871 l0 -0.5127 q0 -0.3955078125 -0.02197265625 -0.7983398438 t0.0073242 -0.79834 q0.0146484375 -0.439453125 0.0146484375 -0.8715820313 t0.014648 -0.87158 q0 -0.52734375 0.2490234375 -0.732421875 q0.1904296875 -0.146484375 0.673828125 -0.146484375 q0.2490234375 -0.0146484375 0.4321289063 -0.02197265625 t0.31494 -0.0073242 q0.5712890625 -0.0146484375 1.142578125 0.00732421875 t1.1426 0.0073242 q0.3076171875 -0.0146484375 0.615234375 -0.02197265625 t0.60059 0.021973 l0.74707 0.043945 q0.1318359375 0.0146484375 0.2270507813 0.0146484375 t0.16846 0.029297 q0.3076171875 0.1611328125 0.29296875 0.4541015625 q-0.0146484375 0.1318359375 -0.1025390625 0.2124023438 t-0.19775 0.12451 t-0.22705 0.058594 t-0.20508 0.014648 q-0.8935546875 0 -1.772460938 -0.0439453125 q-0.087890625 -0.0146484375 -0.2197265625 -0.0146484375 l-0.29297 0 l-0.84961 0 q-0.3369140625 0 -0.6005859375 0.00732421875 t-0.43945 0.0073242 q-0.2490234375 0.0146484375 -0.41015625 0.06591796875 t-0.23438 0.16846 q-0.1171875 0.17578125 -0.087890625 0.439453125 l0 0.20508 t-0.014648 0.16113 q-0.029296875 0.17578125 -0.0439453125 0.3735351563 t0 0.43213 q0 0.41015625 0.322265625 0.6884765625 q0.263671875 0.234375 0.9521484375 0.1904296875 q0.3076171875 -0.0146484375 0.6079101563 -0.05126953125 t0.60791 -0.021973 q0.1318359375 0 0.3442382813 0.00732421875 t0.50537 -0.0073242 q0.5859375 -0.0146484375 0.791015625 0.205078125 q0.0732421875 0.1025390625 0.05859375 0.3369140625 q-0.0439453125 0.263671875 -0.41015625 0.322265625 q-0.3369140625 0.05859375 -0.5419921875 0.05859375 q-0.263671875 0.0146484375 -0.5200195313 0.00732421875 t-0.52002 0.0073242 q-0.322265625 0.029296875 -0.6591796875 0.0146484375 t-0.70313 -0.043945 q-0.0439453125 0 -0.1025390625 -0.00732421875 t-0.10254 -0.0073242 l-0.014648 0 q-0.1611328125 -0.029296875 -0.322265625 0.0732421875 q-0.263671875 0.1611328125 -0.29296875 0.556640625 q-0.029296875 0.380859375 0 0.6591796875 q0.0146484375 0.1611328125 0.02197265625 0.29296875 t-0.0073242 0.23438 q-0.029296875 0.2197265625 -0.05126953125 0.4321289063 t-0.05127 0.43213 q-0.0439453125 0.556640625 0.146484375 0.8349609375 q0.2490234375 0.3369140625 0.8642578125 0.3369140625 q0.4833984375 0 0.9814453125 -0.02197265625 t0.99609 -0.05127 q0.4541015625 -0.0146484375 0.9301757813 0.029296875 t0.94482 0.043945 q0.17578125 0 0.46875 -0.00732421875 t0.4541 0.080566 q0.146484375 0.087890625 0.1611328125 0.263671875 q0.1611328125 0.52734375 -0.4541015625 0.556640625 q-0.966796875 0.0439453125 -1.896972656 0.029296875 t-1.8677 0 q-0.05859375 0 -0.1098632813 0.00732421875 t-0.095215 0.0073242 l-0.57861 0 t-0.40283 -0.014648 q-0.1025390625 0 -0.2416992188 -0.00732421875 t-0.31494 -0.021973 q-0.146484375 -0.0146484375 -0.2416992188 -0.029296875 t-0.13916 -0.029297 q-0.439453125 -0.1318359375 -0.439453125 -0.8203125 z  M47.8710953125 35.7568325 q-0.46875 -0.0732421875 -0.46875 -0.556640625 q-0.0146484375 -0.791015625 -0.0146484375 -1.552734375 l0 -1.5527 q0 -0.439453125 0.0439453125 -0.87890625 q0.029296875 -0.322265625 0.029296875 -0.6005859375 t-0.014648 -0.5127 q-0.0146484375 -0.146484375 -0.029296875 -0.3515625 t-0.029297 -0.4834 q0 -0.146484375 0.00732421875 -0.3515625 t0.021973 -0.4834 q0.0146484375 -0.205078125 0.02197265625 -0.3588867188 t0.0073242 -0.271 l0 -0.32227 l0 -0.014648 l0 -0.11719 q-0.0439453125 -0.3662109375 0.0146484375 -0.5126953125 q0.0439453125 -0.1025390625 0.1904296875 -0.205078125 q0.5712890625 -0.29296875 0.703125 0.3662109375 q0.1171875 0.498046875 0.1391601563 0.9741210938 t-0.021973 0.94482 l0 0.014648 q-0.0439453125 0.4541015625 -0.02197265625 0.908203125 t-0.021973 0.9082 q-0.0439453125 0.3955078125 -0.0732421875 0.6884765625 t-0.043945 0.49805 q-0.029296875 0.29296875 -0.029296875 0.6079101563 t0.014648 0.6665 q0.0146484375 0.0732421875 0.0146484375 0.1684570313 l0 0.22705 l0 0.46875 t0.014648 0.4541 q0 0.1611328125 0.00732421875 0.3002929688 t-0.0073242 0.28564 q0 0.29296875 -0.0146484375 0.322265625 q-0.05859375 0.2783203125 -0.439453125 0.322265625 z M59.458009375 27.290062499999998 q-0.205078125 0.234375 -0.673828125 0.205078125 l-0.73242 -0.043945 q-0.2197265625 -0.0146484375 -0.4248046875 -0.029296875 t-0.4248 -0.014648 q-0.439453125 -0.0146484375 -0.64453125 0.1904296875 q-0.1611328125 0.1904296875 -0.1611328125 0.6298828125 q0 0.205078125 0.02197265625 0.4028320313 t0.021973 0.40283 q0.0146484375 0.4833984375 0.02197265625 0.8422851563 t0.0073242 0.60791 q0 0.7470703125 -0.087890625 1.494140625 q-0.0439453125 0.3515625 0 0.703125 t0.058594 0.68848 q0.0146484375 0.380859375 0.02197265625 0.6591796875 t0.0073242 0.46875 l0 0.19775 t-0.014648 0.31494 q-0.029296875 0.3955078125 -0.05859375 0.4833984375 q-0.1904296875 0.322265625 -0.498046875 0.234375 q-0.380859375 -0.0732421875 -0.380859375 -0.556640625 q-0.0146484375 -0.439453125 0.02197265625 -0.8862304688 t0.065918 -0.88623 q0.0439453125 -0.5126953125 -0.00732421875 -1.040039063 t-0.05127 -1.0547 q0 -0.4833984375 0.03662109375 -0.9741210938 t0.05127 -0.97412 q0 -0.9521484375 -0.3076171875 -1.34765625 q-0.1611328125 -0.205078125 -0.3881835938 -0.3149414063 t-0.50537 -0.13916 t-0.52002 -0.05127 t-0.47607 -0.021973 l-0.44678 0 t-0.41748 -0.087891 q-0.1171875 -0.05859375 -0.146484375 -0.2783203125 q-0.029296875 -0.1611328125 0.0439453125 -0.2783203125 q0.1025390625 -0.17578125 0.5126953125 -0.2197265625 q0.0439453125 -0.0146484375 0.1611328125 -0.0146484375 q0.615234375 -0.0146484375 1.193847656 0.05126953125 t1.1938 0.021973 q0.2490234375 -0.0146484375 0.4907226563 -0.0439453125 t0.50537 -0.029297 l0.97412 0 t0.97412 -0.014648 q0.2490234375 0 0.4321289063 0.0146484375 t0.31494 0.073242 q0.4541015625 0.3076171875 0.234375 0.615234375 z  M75.7910171875 27.290062499999998 q-0.205078125 0.234375 -0.673828125 0.205078125 l-0.73242 -0.043945 q-0.2197265625 -0.0146484375 -0.4248046875 -0.029296875 t-0.4248 -0.014648 q-0.439453125 -0.0146484375 -0.64453125 0.1904296875 q-0.1611328125 0.1904296875 -0.1611328125 0.6298828125 q0 0.205078125 0.02197265625 0.4028320313 t0.021973 0.40283 q0.0146484375 0.4833984375 0.02197265625 0.8422851563 t0.0073242 0.60791 q0 0.7470703125 -0.087890625 1.494140625 q-0.0439453125 0.3515625 0 0.703125 t0.058594 0.68848 q0.0146484375 0.380859375 0.02197265625 0.6591796875 t0.0073242 0.46875 l0 0.19775 t-0.014648 0.31494 q-0.029296875 0.3955078125 -0.05859375 0.4833984375 q-0.1904296875 0.322265625 -0.498046875 0.234375 q-0.380859375 -0.0732421875 -0.380859375 -0.556640625 q-0.0146484375 -0.439453125 0.02197265625 -0.8862304688 t0.065918 -0.88623 q0.0439453125 -0.5126953125 -0.00732421875 -1.040039063 t-0.05127 -1.0547 q0 -0.4833984375 0.03662109375 -0.9741210938 t0.05127 -0.97412 q0 -0.9521484375 -0.3076171875 -1.34765625 q-0.1611328125 -0.205078125 -0.3881835938 -0.3149414063 t-0.50537 -0.13916 t-0.52002 -0.05127 t-0.47607 -0.021973 l-0.44678 0 t-0.41748 -0.087891 q-0.1171875 -0.05859375 -0.146484375 -0.2783203125 q-0.029296875 -0.1611328125 0.0439453125 -0.2783203125 q0.1025390625 -0.17578125 0.5126953125 -0.2197265625 q0.0439453125 -0.0146484375 0.1611328125 -0.0146484375 q0.615234375 -0.0146484375 1.193847656 0.05126953125 t1.1938 0.021973 q0.2490234375 -0.0146484375 0.4907226563 -0.0439453125 t0.50537 -0.029297 l0.97412 0 t0.97412 -0.014648 q0.2490234375 0 0.4321289063 0.0146484375 t0.31494 0.073242 q0.4541015625 0.3076171875 0.234375 0.615234375 z M82.4853734375 35.7275425 q-0.29296875 -0.087890625 -0.5932617188 -0.2270507813 t-0.58594 -0.32227 t-0.53467 -0.41016 t-0.4248 -0.49072 q-0.234375 -0.3662109375 -0.3369140625 -0.7543945313 t-0.29297 -0.79834 q-0.146484375 -0.322265625 -0.1611328125 -0.703125 q-0.0146484375 -0.17578125 -0.03662109375 -0.3588867188 t-0.021973 -0.35889 q-0.0146484375 -0.17578125 -0.02197265625 -0.3076171875 t-0.0073242 -0.21973 q0 -0.2783203125 0.03662109375 -0.5786132813 t0.10986 -0.62256 q0.0146484375 -0.1025390625 0.087890625 -0.263671875 q0.146484375 -0.439453125 0.3735351563 -0.8276367188 t0.52002 -0.7251 q0.5712890625 -0.64453125 1.596679688 -1.142578125 q0.46875 -0.205078125 0.9814453125 -0.1904296875 q0.322265625 0.029296875 0.64453125 0.087890625 q0.263671875 0.0439453125 0.4614257813 0.06591796875 t0.34424 0.05127 q1.127929688 0.1318359375 1.9921875 0.99609375 q0.1904296875 0.1904296875 0.3588867188 0.4174804688 t0.32959 0.49072 l0.073242 0.11719 q0.0146484375 0.0439453125 0.029296875 0.0732421875 l0.029297 0.058594 q0.2490234375 0.5859375 0.4541015625 1.46484375 q0.1904296875 0.8203125 0.05859375 1.508789063 q-0.087890625 0.3955078125 -0.2197265625 0.76171875 t-0.23438 0.73242 q-0.5712890625 1.962890625 -2.578125 2.475585938 l-0.11719 0.029297 q-0.1171875 0.029296875 -0.29296875 0.05859375 t-0.41016 0.058594 q-0.380859375 0.0439453125 -0.7836914063 0.0146484375 t-0.82764 -0.16113 z M83.9648734375 27.3486625 q-0.791015625 0 -1.428222656 0.1904296875 t-1.1499 0.70313 q-0.703125 0.703125 -0.8935546875 1.560058594 t0.014648 1.9116 l0.13184 0.71777 q0.029296875 0.205078125 0.05859375 0.3295898438 t0.043945 0.15381 q0.087890625 0.322265625 0.3515625 0.615234375 t0.4834 0.5127 q0.1171875 0.1318359375 0.234375 0.2563476563 t0.24902 0.22705 q0.2197265625 0.1904296875 0.732421875 0.3515625 l0.014648 0 q0.2783203125 0.0732421875 0.6225585938 0.05126953125 t0.76904 -0.12451 q0.205078125 -0.05859375 0.4174804688 -0.08056640625 t0.43213 -0.080566 q0.5419921875 -0.1318359375 0.908203125 -0.5859375 l0.014648 0 l0 -0.014648 q0.234375 -0.2783203125 0.3955078125 -0.703125 q0.146484375 -0.4248046875 0.2197265625 -0.5419921875 q0.732421875 -1.435546875 0.2197265625 -3.10546875 l-0.014648 -0.014648 q-0.05859375 -0.1611328125 -0.1171875 -0.3076171875 t-0.16113 -0.29297 q-0.5712890625 -0.8642578125 -1.362304688 -1.245117188 q-0.029296875 -0.0146484375 -0.1318359375 -0.0732421875 t-0.29297 -0.17578 q-0.263671875 -0.1611328125 -0.7470703125 -0.234375 l-0.014648 0 z M99.5801 34.8193625 q-1.083984375 0.966796875 -2.607421875 1.040039063 q-1.479492188 0.05859375 -2.797851563 -0.46875 l-0.014648 -0.014648 l-0.029297 0 q-0.2197265625 -0.0732421875 -0.6298828125 -0.41015625 q-0.3955078125 -0.3515625 -0.52734375 -0.52734375 q-0.2197265625 -0.29296875 -0.3881835938 -0.6591796875 t-0.34424 -0.70313 q-0.322265625 -0.6298828125 -0.3515625 -1.069335938 q-0.0146484375 -0.2197265625 -0.00732421875 -0.5053710938 t0.036621 -0.65186 q0.1318359375 -1.611328125 1.010742188 -2.973632813 q0.0732421875 -0.1171875 0.2783203125 -0.2856445313 t0.52734 -0.34424 q0.673828125 -0.3662109375 1.142578125 -0.5126953125 q0.3076171875 -0.1025390625 0.6884765625 -0.146484375 q0.87890625 -0.1025390625 1.801757813 0.00732421875 t1.7139 0.56396 q0.1171875 0.0732421875 0.2563476563 0.17578125 t0.32959 0.24902 q0.3662109375 0.2783203125 0.41015625 0.556640625 q0.0146484375 0.1318359375 -0.087890625 0.263671875 q-0.1611328125 0.205078125 -0.3076171875 0.205078125 q-0.17578125 0 -0.380859375 -0.1391601563 t-0.32227 -0.22705 q-0.2490234375 -0.1611328125 -0.4028320313 -0.263671875 t-0.18311 -0.13184 q-0.7470703125 -0.3955078125 -1.81640625 -0.3955078125 q-0.2490234375 0 -0.5419921875 0.02197265625 t-0.62988 0.080566 l-0.029297 0 l-0.029297 0.014648 q-1.860351563 0.52734375 -2.416992188 2.534179688 q-0.1904296875 0.7177734375 -0.08056640625 1.362304688 t0.28564 1.3184 q0.2783203125 1.025390625 0.9228515625 1.479492188 t1.626 0.62988 l0.014648 0 q0.263671875 0.0439453125 0.4907226563 0.0439453125 t0.44678 -0.036621 t0.44678 -0.080566 t0.49072 -0.073242 q1.040039063 -0.1318359375 1.479492188 -0.7470703125 l0 -0.014648 q0.322265625 -0.498046875 0.263671875 -1.391601563 q-0.0146484375 -0.46875 -0.3369140625 -0.76171875 q-0.3955078125 -0.3662109375 -1.098632813 -0.3369140625 l-1.1719 0.043945 q-0.1904296875 0.0146484375 -0.3369140625 0.02197265625 t-0.26367 0.0073242 q-0.556640625 -0.0732421875 -0.4833984375 -0.498046875 q0.0439453125 -0.29296875 0.41015625 -0.380859375 q0.6591796875 -0.05859375 1.296386719 -0.0146484375 t1.311 0 l0.62988 -0.043945 q0.4248046875 -0.029296875 0.6298828125 0.146484375 q0.234375 0.17578125 0.2490234375 0.615234375 q0.0439453125 0.439453125 0.0439453125 0.673828125 q0 0.3955078125 0.0146484375 0.8276367188 t-0.058594 0.81299 q-0.1025390625 0.556640625 -0.5712890625 1.11328125 z M103.974609375 34.8779625 q-0.0146484375 -0.8935546875 -0.00732421875 -1.787109375 t0.0073242 -1.7871 l0 -0.5127 q0 -0.3955078125 -0.02197265625 -0.7983398438 t0.0073242 -0.79834 q0.0146484375 -0.439453125 0.0146484375 -0.8715820313 t0.014648 -0.87158 q0 -0.52734375 0.2490234375 -0.732421875 q0.1904296875 -0.146484375 0.673828125 -0.146484375 q0.2490234375 -0.0146484375 0.4321289063 -0.02197265625 t0.31494 -0.0073242 q0.5712890625 -0.0146484375 1.142578125 0.00732421875 t1.1426 0.0073242 q0.3076171875 -0.0146484375 0.615234375 -0.02197265625 t0.60059 0.021973 l0.74707 0.043945 q0.1318359375 0.0146484375 0.2270507813 0.0146484375 t0.16846 0.029297 q0.3076171875 0.1611328125 0.29296875 0.4541015625 q-0.0146484375 0.1318359375 -0.1025390625 0.2124023438 t-0.19775 0.12451 t-0.22705 0.058594 t-0.20508 0.014648 q-0.8935546875 0 -1.772460938 -0.0439453125 q-0.087890625 -0.0146484375 -0.2197265625 -0.0146484375 l-0.29297 0 l-0.84961 0 q-0.3369140625 0 -0.6005859375 0.00732421875 t-0.43945 0.0073242 q-0.2490234375 0.0146484375 -0.41015625 0.06591796875 t-0.23438 0.16846 q-0.1171875 0.17578125 -0.087890625 0.439453125 l0 0.20508 t-0.014648 0.16113 q-0.029296875 0.17578125 -0.0439453125 0.3735351563 t0 0.43213 q0 0.41015625 0.322265625 0.6884765625 q0.263671875 0.234375 0.9521484375 0.1904296875 q0.3076171875 -0.0146484375 0.6079101563 -0.05126953125 t0.60791 -0.021973 q0.1318359375 0 0.3442382813 0.00732421875 t0.50537 -0.0073242 q0.5859375 -0.0146484375 0.791015625 0.205078125 q0.0732421875 0.1025390625 0.05859375 0.3369140625 q-0.0439453125 0.263671875 -0.41015625 0.322265625 q-0.3369140625 0.05859375 -0.5419921875 0.05859375 q-0.263671875 0.0146484375 -0.5200195313 0.00732421875 t-0.52002 0.0073242 q-0.322265625 0.029296875 -0.6591796875 0.0146484375 t-0.70313 -0.043945 q-0.0439453125 0 -0.1025390625 -0.00732421875 t-0.10254 -0.0073242 l-0.014648 0 q-0.1611328125 -0.029296875 -0.322265625 0.0732421875 q-0.263671875 0.1611328125 -0.29296875 0.556640625 q-0.029296875 0.380859375 0 0.6591796875 q0.0146484375 0.1611328125 0.02197265625 0.29296875 t-0.0073242 0.23438 q-0.029296875 0.2197265625 -0.05126953125 0.4321289063 t-0.05127 0.43213 q-0.0439453125 0.556640625 0.146484375 0.8349609375 q0.2490234375 0.3369140625 0.8642578125 0.3369140625 q0.4833984375 0 0.9814453125 -0.02197265625 t0.99609 -0.05127 q0.4541015625 -0.0146484375 0.9301757813 0.029296875 t0.94482 0.043945 q0.17578125 0 0.46875 -0.00732421875 t0.4541 0.080566 q0.146484375 0.087890625 0.1611328125 0.263671875 q0.1611328125 0.52734375 -0.4541015625 0.556640625 q-0.966796875 0.0439453125 -1.896972656 0.029296875 t-1.8677 0 q-0.05859375 0 -0.1098632813 0.00732421875 t-0.095215 0.0073242 l-0.57861 0 t-0.40283 -0.014648 q-0.1025390625 0 -0.2416992188 -0.00732421875 t-0.31494 -0.021973 q-0.146484375 -0.0146484375 -0.2416992188 -0.029296875 t-0.13916 -0.029297 q-0.439453125 -0.1318359375 -0.439453125 -0.8203125 z M121.098634375 27.290062499999998 q-0.205078125 0.234375 -0.673828125 0.205078125 l-0.73242 -0.043945 q-0.2197265625 -0.0146484375 -0.4248046875 -0.029296875 t-0.4248 -0.014648 q-0.439453125 -0.0146484375 -0.64453125 0.1904296875 q-0.1611328125 0.1904296875 -0.1611328125 0.6298828125 q0 0.205078125 0.02197265625 0.4028320313 t0.021973 0.40283 q0.0146484375 0.4833984375 0.02197265625 0.8422851563 t0.0073242 0.60791 q0 0.7470703125 -0.087890625 1.494140625 q-0.0439453125 0.3515625 0 0.703125 t0.058594 0.68848 q0.0146484375 0.380859375 0.02197265625 0.6591796875 t0.0073242 0.46875 l0 0.19775 t-0.014648 0.31494 q-0.029296875 0.3955078125 -0.05859375 0.4833984375 q-0.1904296875 0.322265625 -0.498046875 0.234375 q-0.380859375 -0.0732421875 -0.380859375 -0.556640625 q-0.0146484375 -0.439453125 0.02197265625 -0.8862304688 t0.065918 -0.88623 q0.0439453125 -0.5126953125 -0.00732421875 -1.040039063 t-0.05127 -1.0547 q0 -0.4833984375 0.03662109375 -0.9741210938 t0.05127 -0.97412 q0 -0.9521484375 -0.3076171875 -1.34765625 q-0.1611328125 -0.205078125 -0.3881835938 -0.3149414063 t-0.50537 -0.13916 t-0.52002 -0.05127 t-0.47607 -0.021973 l-0.44678 0 t-0.41748 -0.087891 q-0.1171875 -0.05859375 -0.146484375 -0.2783203125 q-0.029296875 -0.1611328125 0.0439453125 -0.2783203125 q0.1025390625 -0.17578125 0.5126953125 -0.2197265625 q0.0439453125 -0.0146484375 0.1611328125 -0.0146484375 q0.615234375 -0.0146484375 1.193847656 0.05126953125 t1.1938 0.021973 q0.2490234375 -0.0146484375 0.4907226563 -0.0439453125 t0.50537 -0.029297 l0.97412 0 t0.97412 -0.014648 q0.2490234375 0 0.4321289063 0.0146484375 t0.31494 0.073242 q0.4541015625 0.3076171875 0.234375 0.615234375 z M128.027390625 29.9853625 q0.52734375 0.0146484375 1.0546875 0.03662109375 t1.0547 0.095215 q0.41015625 0.05859375 0.6298828125 -0.17578125 q0.1611328125 -0.17578125 0.1538085938 -0.439453125 t-0.0073242 -0.49805 q0.0146484375 -0.3662109375 0.0146484375 -0.6372070313 l0 -0.44678 q0 -0.087890625 0.00732421875 -0.234375 t0.014648 -0.30029 t0.029297 -0.30029 t0.065918 -0.23438 q0.1318359375 -0.3076171875 0.4833984375 -0.2783203125 q0.380859375 0.0439453125 0.380859375 0.6591796875 q-0.0146484375 0.3662109375 -0.0439453125 0.732421875 t0 0.71777 l0 0.014648 q0 0.5859375 0.029296875 1.171875 t0.058594 1.1572 q0.029296875 0.3515625 0 0.7104492188 t-0.029297 0.71045 q-0.0146484375 0.615234375 -0.0146484375 1.223144531 l0 1.2231 q0 0.5419921875 -0.1025390625 0.703125 q-0.05859375 0.1025390625 -0.234375 0.146484375 q-0.52734375 0.1318359375 -0.6005859375 -0.46875 q-0.0732421875 -0.7470703125 -0.05126953125 -1.508789063 t-0.0073242 -1.5234 q-0.0146484375 -0.2783203125 -0.06591796875 -0.615234375 t-0.28564 -0.54199 q-0.2197265625 -0.17578125 -0.76171875 -0.17578125 q-0.263671875 0 -0.5200195313 0.0146484375 t-0.52002 0 l-0.83496 0 q-0.263671875 0.0146484375 -0.5200195313 -0.00732421875 t-0.52002 -0.036621 q-0.556640625 -0.0439453125 -0.8349609375 0.146484375 q-0.3369140625 0.29296875 -0.3369140625 0.9814453125 q0 0.4541015625 0.0146484375 0.9155273438 t0.014648 0.90088 q0 0.3662109375 -0.0146484375 0.6372070313 t-0.014648 0.46143 q-0.0146484375 0.205078125 -0.029296875 0.3515625 t-0.043945 0.24902 q-0.1611328125 0.3076171875 -0.5126953125 0.2197265625 q-0.3515625 -0.05859375 -0.3515625 -0.5419921875 l0 -0.95215 t0.014648 -0.95215 q0.0146484375 -0.4541015625 0 -0.9155273438 t-0.014648 -0.93018 q0 -0.7470703125 0.0146484375 -1.494140625 l0.029297 -1.4941 q0 -0.1171875 -0.0146484375 -0.322265625 t-0.029297 -0.5127 q-0.029296875 -0.6298828125 0.0439453125 -0.791015625 q0.1904296875 -0.2783203125 0.439453125 -0.263671875 q0.439453125 0.0146484375 0.4833984375 0.6884765625 q0.0146484375 0.17578125 0.02197265625 0.3076171875 t0.0073242 0.23438 l0 0.20508 t-0.029297 0.30762 l-0.058594 0.43945 t-0.029297 0.4248 q-0.029296875 0.46875 0.17578125 0.64453125 q0.2197265625 0.1611328125 0.5859375 0.1025390625 q0.205078125 -0.0146484375 0.3515625 -0.0146484375 l0.24902 0 q0.2490234375 0.0146484375 0.498046875 0.0439453125 t0.5127 0.029297 z M135.99609375 34.8779625 q-0.0146484375 -0.8935546875 -0.00732421875 -1.787109375 t0.0073242 -1.7871 l0 -0.5127 q0 -0.3955078125 -0.02197265625 -0.7983398438 t0.0073242 -0.79834 q0.0146484375 -0.439453125 0.0146484375 -0.8715820313 t0.014648 -0.87158 q0 -0.52734375 0.2490234375 -0.732421875 q0.1904296875 -0.146484375 0.673828125 -0.146484375 q0.2490234375 -0.0146484375 0.4321289063 -0.02197265625 t0.31494 -0.0073242 q0.5712890625 -0.0146484375 1.142578125 0.00732421875 t1.1426 0.0073242 q0.3076171875 -0.0146484375 0.615234375 -0.02197265625 t0.60059 0.021973 l0.74707 0.043945 q0.1318359375 0.0146484375 0.2270507813 0.0146484375 t0.16846 0.029297 q0.3076171875 0.1611328125 0.29296875 0.4541015625 q-0.0146484375 0.1318359375 -0.1025390625 0.2124023438 t-0.19775 0.12451 t-0.22705 0.058594 t-0.20508 0.014648 q-0.8935546875 0 -1.772460938 -0.0439453125 q-0.087890625 -0.0146484375 -0.2197265625 -0.0146484375 l-0.29297 0 l-0.84961 0 q-0.3369140625 0 -0.6005859375 0.00732421875 t-0.43945 0.0073242 q-0.2490234375 0.0146484375 -0.41015625 0.06591796875 t-0.23438 0.16846 q-0.1171875 0.17578125 -0.087890625 0.439453125 l0 0.20508 t-0.014648 0.16113 q-0.029296875 0.17578125 -0.0439453125 0.3735351563 t0 0.43213 q0 0.41015625 0.322265625 0.6884765625 q0.263671875 0.234375 0.9521484375 0.1904296875 q0.3076171875 -0.0146484375 0.6079101563 -0.05126953125 t0.60791 -0.021973 q0.1318359375 0 0.3442382813 0.00732421875 t0.50537 -0.0073242 q0.5859375 -0.0146484375 0.791015625 0.205078125 q0.0732421875 0.1025390625 0.05859375 0.3369140625 q-0.0439453125 0.263671875 -0.41015625 0.322265625 q-0.3369140625 0.05859375 -0.5419921875 0.05859375 q-0.263671875 0.0146484375 -0.5200195313 0.00732421875 t-0.52002 0.0073242 q-0.322265625 0.029296875 -0.6591796875 0.0146484375 t-0.70313 -0.043945 q-0.0439453125 0 -0.1025390625 -0.00732421875 t-0.10254 -0.0073242 l-0.014648 0 q-0.1611328125 -0.029296875 -0.322265625 0.0732421875 q-0.263671875 0.1611328125 -0.29296875 0.556640625 q-0.029296875 0.380859375 0 0.6591796875 q0.0146484375 0.1611328125 0.02197265625 0.29296875 t-0.0073242 0.23438 q-0.029296875 0.2197265625 -0.05126953125 0.4321289063 t-0.05127 0.43213 q-0.0439453125 0.556640625 0.146484375 0.8349609375 q0.2490234375 0.3369140625 0.8642578125 0.3369140625 q0.4833984375 0 0.9814453125 -0.02197265625 t0.99609 -0.05127 q0.4541015625 -0.0146484375 0.9301757813 0.029296875 t0.94482 0.043945 q0.17578125 0 0.46875 -0.00732421875 t0.4541 0.080566 q0.146484375 0.087890625 0.1611328125 0.263671875 q0.1611328125 0.52734375 -0.4541015625 0.556640625 q-0.966796875 0.0439453125 -1.896972656 0.029296875 t-1.8677 0 q-0.05859375 0 -0.1098632813 0.00732421875 t-0.095215 0.0073242 l-0.57861 0 t-0.40283 -0.014648 q-0.1025390625 0 -0.2416992188 -0.00732421875 t-0.31494 -0.021973 q-0.146484375 -0.0146484375 -0.2416992188 -0.029296875 t-0.13916 -0.029297 q-0.439453125 -0.1318359375 -0.439453125 -0.8203125 z M151.87501875 27.1288625 q0.3076171875 0.3076171875 0.4907226563 0.673828125 l0.37354 0.74707 q0.205078125 0.4248046875 0.1245117188 0.8569335938 t-0.47607 0.84229 q-0.3076171875 0.322265625 -1.025390625 0.5126953125 q-0.263671875 0.0732421875 -0.5639648438 0.1538085938 t-0.41748 0.34424 q-0.087890625 0.2490234375 0.0439453125 0.5126953125 q0.146484375 0.2783203125 0.234375 0.4541015625 t0.14648 0.26367 q0.0732421875 0.146484375 0.1904296875 0.3295898438 t0.27832 0.41748 q0.3369140625 0.46875 0.7104492188 0.87890625 t0.75439 0.79102 l0.073242 0.073242 q0.322265625 0.322265625 0.0146484375 0.6298828125 q-0.3369140625 0.3369140625 -0.64453125 0.0146484375 l-0.43945 -0.43945 t-0.35156 -0.38086 q-0.3515625 -0.439453125 -0.6591796875 -0.9228515625 q-0.2197265625 -0.322265625 -0.4467773438 -0.6225585938 t-0.43213 -0.65186 q-0.5859375 -1.0546875 -1.450195313 -1.391601563 q-0.9228515625 -0.3369140625 -1.34765625 0.263671875 q-0.1318359375 0.205078125 -0.1318359375 0.4541015625 l0 3.1787 l0 0.19043 q0 0.439453125 -0.4541015625 0.4541015625 q-0.4541015625 -0.0146484375 -0.4541015625 -0.556640625 q0 -0.3369140625 0.02197265625 -0.6958007813 t0.036621 -0.76904 q0.0146484375 -0.2783203125 -0.00732421875 -0.5712890625 t-0.021973 -0.57129 t0.014648 -0.55664 t0.014648 -0.55664 q0.0146484375 -0.6591796875 -0.0439453125 -1.362304688 q0 -0.4833984375 0.02197265625 -0.9814453125 t0.0073242 -1.0107 q-0.0146484375 -0.263671875 -0.0146484375 -0.5932617188 t0.087891 -0.59326 q0.263671875 -0.3515625 1.245117188 -0.3515625 l0.4541 0 q0.52734375 0 1.062011719 0.0439453125 t1.062 0.014648 q1.215820313 -0.05859375 1.918945313 0.4833984375 z M147.75881875 30.2929625 q0.556640625 0.0146484375 0.9814453125 0.0146484375 t0.71777 -0.029297 q0.2783203125 -0.029296875 0.6225585938 -0.0732421875 t0.75439 -0.11719 q0.8349609375 -0.17578125 1.083984375 -0.7763671875 q0.1025390625 -0.2197265625 0.0732421875 -0.4833984375 t-0.16846 -0.4834 t-0.35156 -0.37354 t-0.46143 -0.26367 t-0.4834 -0.15381 q-0.615234375 -0.1171875 -1.223144531 -0.09521484375 t-1.2231 -0.0073242 q-0.1171875 0 -0.2270507813 -0.00732421875 t-0.22705 -0.0073242 q-0.3076171875 -0.0146484375 -0.46875 0.1611328125 q-0.1318359375 0.146484375 -0.1025390625 0.41015625 q0.0146484375 0.0732421875 0.0146484375 0.3076171875 q-0.0146484375 0.2197265625 -0.05126953125 0.4248046875 t-0.05127 0.41016 q-0.087890625 0.5712890625 0.1318359375 0.849609375 q0.1904296875 0.263671875 0.6591796875 0.29296875 z"/></g>
            </svg>
			</g>
		</svg>
    